<?xml version="1.0" encoding="utf-8"?>
<!-- Generator: Adobe Illustrator 19.0.0, SVG Export Plug-In . SVG Version: 6.00 Build 0)  -->
<svg version="1.1" id="Layer_1" xmlns="http://www.w3.org/2000/svg" xmlns:xlink="http://www.w3.org/1999/xlink" x="0px" y="0px"
	 viewBox="0 0 420.9 271.5" style="enable-background:new 0 0 420.9 271.5;" xml:space="preserve">
<style type="text/css">
	.st0{fill:#088AC7;}
	.st1{fill:#FFFFFF;}
	.st2{fill:#061C63;}
</style>
<path class="st0" d="M193.3,34.2c-3.1-7.2-8.3-12.5-15.6-15.5c-9.6-3.9-19.6-3.8-29.6-2.5c-5.7,0.7-11.3,2.1-16.8,3.6
	c-6.4,1.8-12.7,4.2-19.1,6.1c-2,0.6-3.6,1.9-6.2,0.9c-8-3.1-16.1-5.9-24.4-8.3c-5.1-1.5-10.5-2.2-15.9-2.8c-7.5-0.8-15-0.4-22.2,1.9
	c-13,4.1-21.1,13.3-25.6,25.9c-3,8.6-4.3,17.6-4.3,26.6c0,6.8,0.7,13.7,1.3,20.5c0.4,4.4,0.9,8.7,1.9,13c1.8,7.8,4,15.5,6.1,23.2
	c1.3,4.8,2.7,9.7,4.4,14.4c3.1,8,6.6,15.9,9.8,23.8c0.4,0.9,0.5,2,0.5,3c0,4.4-0.2,8.8-0.1,13.2c0.1,4.4,7.6,38.8,10.3,44.3
	c7.3,15.4,18.7,27,33.8,34.9c3.6,1.9,8.5,1.3,11.3-1.3c2.9-2.7,4-7.4,2.4-11.1c-3-7.2-5.2-14.7-6.2-22.5c-0.3-2.3-0.8-4.6-0.8-6.9
	c-0.1-4.2-0.2-8.3,0-12.5c0.2-3.4,0.8-6.7,1.2-10c-0.3,0-0.5-0.1-0.8-0.1c-1.2,5.1-2.9,10.1-3.4,15.2c-0.5,5.6-0.2,11.4,0.7,17
	c1.1,6.8,3.1,13.4,4.8,20.1c0.6,2.3,0.8,4.4-1,6.1c-1.8,1.7-4,1.3-6.2,0.4c-9-3.9-15.8-10.6-20.9-18.7
	c-7.1-11.1-10.9-23.7-12.7-36.7c-1.4-9.7-1.9-19.5,0.6-29.2c1.7-6.5,4-12.7,7.5-18.3c2-3.1,4.1-6.2,6.2-9.2
	c-6.7,3.6-11.6,9.2-16,15.5c-2.5-5.9-4.6-11.7-6.6-17.5c-1.7-5.1-3.2-10.3-4.5-15.5c-2.1-8.3-4.1-16.7-5.8-25.1
	c-0.9-4.6-1.3-9.2-1.8-13.9c-0.4-3.7-0.7-7.4-0.8-11.1c0-2.4,0.5-4.8,0.6-7.2c0.5-7.6,1.8-14.9,5.5-21.6c5.4-9.9,14-14.9,25.1-15.7
	c8.4-0.6,16.4,1.2,24.2,4.1c4.6,1.7,9,3.8,13.5,5.6c1.6,0.7,1.4,1.3,0.4,2.5c-4.7,5.5-9.5,10.8-13.8,16.6c-3.1,4.1-5.6,8.5-7,13.2
	c3.5-3.5,6.9-7.3,10.8-10.7c8.2-7.2,17.5-12.8,27.3-17.6c9.4-4.6,19-8.5,29.2-10.9c6.3-1.5,12.7-2.3,19.2-3
	c4.9-0.5,9.8,0.2,14.4,1.9c7.5,2.9,12,8.8,14.8,16.1c2.7,7,3.7,14.2,3.8,21.6c0.1-1.8,0.3-3.5,0.4-5.3
	C198.1,54.4,197.6,44,193.3,34.2z"/>
<path class="st1" d="M112.8,110.1c0.5-0.4,1.1-0.9,1.6-1.4c2.2,1.8,2.7,3.8,1.2,5c-0.8,0.6-2.6,1.2-3,0.8c-1.5-1.3-2.9-3-3.8-4.8
	c-0.3-0.5,1-2,1.9-2.8c0.5-0.4,1.5-0.1,2.4-0.1c0,0.2,0,0.5,0,0.7c-0.4,0.1-0.7,0.2-1.1,0.2c-1.9,0.3-2.5,1.5-1.4,3
	c0.5,0.7,1,1.5,1.7,1.9c0.6,0.4,1.6,0.5,2.3,0.3c0.4-0.1,0.8-1.4,0.5-1.8C114.7,110.7,113.8,110.6,112.8,110.1z"/>
<g>
	<path class="st0" d="M120.8,134.8l2.2-3.1h1.7l0.2,12h-2.1c-1.1-3.4-2.7-6-4.7-7.7c-2-1.7-4.3-2.6-6.7-2.6c-2.1,0-3.8,0.6-5.1,1.7
		c-1.3,1.1-2,2.5-2,4.1c0,0.9,0.3,1.8,0.8,2.6c0.5,0.8,1.3,1.5,2.5,2c1.1,0.6,3.2,1.1,6,1.7c3.4,0.7,5.7,1.3,7,1.9
		c2,0.9,3.6,2.1,4.6,3.6c1,1.5,1.5,3.3,1.5,5.5c0,3.2-1.1,5.8-3.3,7.7c-2.7,2.3-6,3.5-9.9,3.5c-3.6,0-6.9-1.3-9.9-3.8l-2.7,3.4h-1.7
		v-12.9h2.1c2,7.3,6.2,11,12.5,11c2.6,0,4.6-0.6,6-1.8c1.4-1.2,2.1-2.7,2.1-4.4c0-1.2-0.3-2.3-0.9-3.1c-0.6-0.8-1.6-1.5-2.9-2
		c-0.7-0.3-2.5-0.7-5.3-1.3c-3.8-0.8-6.6-1.7-8.2-2.6c-1.6-0.9-2.8-2-3.6-3.3c-0.8-1.3-1.2-2.9-1.2-4.8c0-3.2,1.1-5.7,3.2-7.7
		c2.1-2,5-3,8.5-3C114.8,131.2,117.9,132.4,120.8,134.8z"/>
	<path class="st0" d="M136.8,132.1h14l7.9,23.5l7.9-23.5h14.4v2.2h-3.1c-0.8,0-1.3,0.1-1.6,0.4c-0.3,0.3-0.4,0.8-0.4,1.5v26.5
		c0,0.7,0.2,1.1,0.5,1.4c0.5,0.4,1.1,0.6,1.9,0.6h2.8v2.2h-17.7v-2.2h3.3c0.6,0,1.1-0.2,1.4-0.5c0.3-0.3,0.5-0.8,0.5-1.4v-28.4
		l-11,32.6h-2.1l-11-32.8v25.4c0,1.5,0.5,2.7,1.4,3.6c0.9,0.9,2.3,1.5,4,1.7v2.2h-12.9v-2.2c1.6-0.1,2.9-0.7,3.8-1.7
		c0.9-1,1.4-2.3,1.4-3.8v-22.5c0-1-0.2-1.6-0.5-1.9c-0.3-0.3-1-0.5-1.9-0.5h-2.7V132.1z"/>
	<path class="st0" d="M190.5,132.1h17.8v2.2h-3.2c-0.7,0-1.2,0.1-1.5,0.4c-0.3,0.3-0.5,0.7-0.5,1.2v26.9c0,0.6,0.2,1.1,0.5,1.3
		c0.4,0.3,1,0.5,1.8,0.5h2.9v2.2h-17.8v-2.2h2.7c0.9,0,1.6-0.2,2-0.5c0.4-0.3,0.6-0.8,0.6-1.4v-26.6c0-0.7-0.2-1.1-0.5-1.5
		c-0.4-0.3-0.9-0.5-1.7-0.5h-3.1V132.1z"/>
	<path class="st0" d="M218.4,134.3v-2.2h17.8v2.2h-3c-0.9,0-1.5,0.2-1.8,0.5c-0.3,0.3-0.5,0.9-0.5,1.6v25.8c0,1,0.2,1.7,0.5,2
		c0.3,0.3,1.1,0.4,2.3,0.4h5c1.9,0,3.6-0.9,5.2-2.7c1.6-1.8,2.8-4.6,3.7-8.5h2.1l-0.8,13.3h-30.6v-2.2h3.1c0.7,0,1.2-0.2,1.5-0.5
		c0.3-0.3,0.5-0.8,0.5-1.5v-26.6c0-0.6-0.2-1.1-0.5-1.4s-1-0.4-1.8-0.4H218.4z"/>
	<path class="st0" d="M259,132.1h30.3l0.7,12.1h-2.1c-0.5-2.9-1.1-4.9-1.8-6.2c-0.7-1.3-1.7-2.2-2.9-2.8c-1.2-0.6-2.7-0.9-4.6-0.9
		h-4.7c-0.7,0-1.3,0.1-1.6,0.4s-0.5,0.7-0.5,1.2V148h1.6c1.9,0,3.3-0.5,4.3-1.6c1-1.1,1.6-2.8,1.8-5.1h2.1v16.2h-2.1
		c-0.1-2.7-0.7-4.6-1.8-5.7s-2.6-1.6-4.7-1.6h-1.3V163c0,0.6,0.2,1,0.5,1.2c0.5,0.3,1.2,0.5,2.2,0.5h4.2c2.9,0,5.2-0.9,7-2.7
		c1.8-1.8,2.9-4.6,3.4-8.3h2.1l-0.5,13.2H259v-2.2h3.1c0.7,0,1.2-0.2,1.6-0.5c0.4-0.4,0.6-0.8,0.6-1.5v-26.7c0-0.6-0.2-1-0.6-1.2
		c-0.4-0.3-1-0.4-2-0.4H259V132.1z"/>
	<path class="st0" d="M323.9,134.8l2.2-3.1h1.7l0.2,12h-2.1c-1.1-3.4-2.7-6-4.7-7.7c-2-1.7-4.3-2.6-6.7-2.6c-2.1,0-3.8,0.6-5.1,1.7
		c-1.3,1.1-2,2.5-2,4.1c0,0.9,0.3,1.8,0.8,2.6c0.5,0.8,1.3,1.5,2.5,2c1.1,0.6,3.2,1.1,6,1.7c3.4,0.7,5.7,1.3,7,1.9
		c2,0.9,3.6,2.1,4.6,3.6c1,1.5,1.5,3.3,1.5,5.5c0,3.2-1.1,5.8-3.3,7.7c-2.7,2.3-6,3.5-9.9,3.5c-3.6,0-6.9-1.3-9.9-3.8l-2.7,3.4h-1.7
		v-12.9h2.1c2,7.3,6.2,11,12.5,11c2.6,0,4.6-0.6,6-1.8c1.4-1.2,2.1-2.7,2.1-4.4c0-1.2-0.3-2.3-0.9-3.1c-0.6-0.8-1.6-1.5-2.9-2
		c-0.7-0.3-2.5-0.7-5.3-1.3c-3.8-0.8-6.6-1.7-8.2-2.6c-1.6-0.9-2.8-2-3.6-3.3c-0.8-1.3-1.2-2.9-1.2-4.8c0-3.2,1.1-5.7,3.2-7.7
		c2.1-2,5-3,8.5-3C317.9,131.2,321.1,132.4,323.9,134.8z"/>
	<path class="st0" d="M356.8,133.5h2.2v22.7h4.7v2.6H359v4c0,0.6,0.2,1.1,0.6,1.4c0.4,0.3,0.9,0.5,1.7,0.5h1.2v2.2h-14.6v-2.2h2.4
		c0.9,0,1.6-0.2,1.9-0.5c0.4-0.5,0.7-1.2,0.7-2.1v-3.3h-12.1v-3.2L356.8,133.5z M352.8,142.7l-9.7,13.4h9.7V142.7z"/>
	<path class="st0" d="M373.8,132.1h17.5v2.2h-3.5c-0.5,0-0.9,0.2-1.2,0.5c-0.3,0.3-0.4,0.8-0.4,1.5v19.2c0,2.7,0.7,4.8,2.2,6.2
		c1.4,1.4,3.4,2.2,6,2.2c1.9,0,3.6-0.4,5.1-1.2c1.1-0.6,2-1.6,2.7-2.9c0.7-1.4,1.1-3.1,1.1-5.1v-14.8c0-1.9-0.4-3.3-1.3-4.2
		c-0.8-0.9-2-1.4-3.4-1.4H398v-2.2h13.2v2.2h-0.9c-1.4,0-2.4,0.5-3.1,1.6c-0.7,1-1.1,2.3-1.1,3.9v16c0,3.6-1.2,6.4-3.6,8.6
		c-2.4,2.2-5.7,3.3-9.9,3.3c-3,0-5.6-0.5-7.8-1.5c-2.2-1-3.8-2.2-4.7-3.8c-0.9-1.5-1.4-3.6-1.4-6.1v-19.5c0-0.9-0.2-1.5-0.5-1.9
		c-0.3-0.3-1-0.5-1.9-0.5h-2.6V132.1z"/>
</g>
<g>
	<path class="st2" d="M102,75.3h15.7c5.7,0,9.9,1.1,12.6,3.2c2.7,2.1,4.1,5.4,4.1,9.8c0,3.1-0.8,5.7-2.4,7.7s-3.9,3.3-6.9,3.9
		c3.5,0.6,6.1,2,7.8,4.1c1.7,2.1,2.6,4.9,2.6,8.6c0,4.7-1.5,8.2-4.5,10.5c-3,2.3-7.6,3.4-13.9,3.4H102V75.3z M113.2,83.8v12.4h2.6
		c2.6,0,4.5-0.5,5.6-1.4c1.2-1,1.7-2.5,1.7-4.7c0-2.2-0.6-3.8-1.8-4.8c-1.2-1-3.1-1.5-5.8-1.5H113.2z M113.2,104.1v13.6h2.8
		c2.9,0,5-0.5,6.2-1.6c1.3-1.1,1.9-2.8,1.9-5.1c0-2.4-0.6-4.2-1.9-5.3c-1.3-1.1-3.4-1.6-6.3-1.6H113.2z"/>
	<path class="st2" d="M139.5,75.3h29v8.5h-17.3V96h16.4v8.5h-16.4v13.1h18.2v8.6h-29.9V75.3z"/>
	<path class="st2" d="M174,75.3h13.5l15.4,37.2V75.3h10v51h-13.5l-15.4-37.3v37.3H174V75.3z"/>
	<path class="st2" d="M246.1,76.1l-0.7,9.2c-1.8-0.8-3.5-1.4-5.2-1.8c-1.7-0.4-3.3-0.6-4.7-0.6c-2.2,0-4,0.5-5.2,1.4
		c-1.2,0.9-1.8,2.2-1.8,3.8c0,1.5,0.5,2.8,1.5,3.9c1,1.1,3.1,2.3,6.3,3.8c5.3,2.6,8.8,4.9,10.3,7c1.6,2.1,2.4,4.9,2.4,8.4
		c0,4.9-1.6,8.8-4.8,11.6c-3.2,2.8-7.6,4.3-13.2,4.3c-1.9,0-4-0.2-6.1-0.6c-2.1-0.4-4.4-0.9-6.9-1.7l0.9-9.2
		c2.2,1.1,4.2,1.8,6.1,2.3c1.9,0.5,3.8,0.8,5.5,0.8c2.3,0,4.1-0.5,5.4-1.6c1.3-1.1,2-2.5,2-4.4c0-2.7-2.7-5.4-8.1-8.1
		c-0.7-0.3-1.2-0.6-1.5-0.8c-4.3-2.2-7.2-4.3-8.6-6.3c-1.4-2-2.2-4.6-2.2-7.8c0-4.8,1.6-8.5,4.7-11.3c3.1-2.7,7.5-4.1,13.1-4.1
		c1.7,0,3.5,0.1,5.3,0.4C242.2,75.1,244.1,75.5,246.1,76.1z"/>
	<path class="st2" d="M263.8,75.3h13.5l15.8,51H281l-2.9-11.4h-16.4l-3.1,11.4h-11.4L263.8,75.3z M270.3,85.4l-6.1,20.7h11.5
		L270.3,85.4z"/>
	<path class="st2" d="M293.9,75.3h11.7v41.7h16.7v9.3h-28.4V75.3z"/>
	<path class="st2" d="M324.2,75.3h29v8.5h-17.3V96h16.4v8.5h-16.4v13.1H354v8.6h-29.9V75.3z"/>
	<path class="st2" d="M358.7,75.3h16.5l9.1,34.2l9.3-34.2h16.6v51h-10.4V83.9l-11.9,42.4h-7.3L368.6,84v42.4h-9.9V75.3z"/>
</g>
<rect x="99.6" y="177.1" class="st0" width="310.6" height="40.7"/>
<g>
	<path class="st1" d="M112,186.9h5.5c3.9,0,6.8,0.9,8.7,2.6c1.9,1.7,2.8,4.5,2.8,8.1c0,3.5-1,6.2-2.9,8c-2,1.8-4.8,2.8-8.5,2.8H112
		V186.9z M116.9,190.4v14.3h0.6c2,0,3.6-0.6,4.6-1.8c1-1.2,1.6-3,1.6-5.3c0-2.4-0.5-4.2-1.5-5.4c-1-1.2-2.6-1.8-4.7-1.8H116.9z"/>
	<path class="st1" d="M145.1,186.9h12.2v3.6h-7.3v5.1h6.9v3.6h-6.9v5.5h7.7v3.6h-12.6V186.9z"/>
	<path class="st1" d="M174,186.9h5.7l6.5,15.7v-15.7h4.2v21.5h-5.7l-6.5-15.7v15.7H174V186.9z"/>
	<path class="st1" d="M205.7,186.9H220v3.8h-4.7v17.7h-5v-17.7h-4.7V186.9z"/>
	<path class="st1" d="M238.8,186.9h5.7l6.7,21.5h-5.1l-1.2-4.8h-6.9l-1.3,4.8h-4.8L238.8,186.9z M241.6,191.1l-2.6,8.7h4.9
		L241.6,191.1z"/>
	<path class="st1" d="M265.8,186.9h4.9v17.6h7v3.9h-12V186.9z"/>
	<path class="st1" d="M307,187.5l-0.2,4c-0.7-0.4-1.3-0.7-2-0.9c-0.6-0.2-1.4-0.3-2.1-0.3c-1.8,0-3.2,0.6-4.2,1.9
		c-1,1.3-1.5,3-1.5,5.3c0,2.3,0.5,4.1,1.5,5.4c1,1.3,2.4,1.9,4.3,1.9c0.7,0,1.3-0.1,2-0.3s1.3-0.5,2-0.9l0.2,4.1
		c-0.8,0.3-1.6,0.5-2.4,0.7c-0.8,0.2-1.7,0.2-2.6,0.2c-3.1,0-5.6-1-7.5-3c-1.8-2-2.8-4.7-2.8-8.1c0-3.4,0.9-6,2.7-8.1
		c1.8-2,4.3-3,7.3-3c0.8,0,1.7,0.1,2.5,0.3C305.3,186.9,306.1,187.2,307,187.5z"/>
	<path class="st1" d="M328.3,186.9h5.7l6.7,21.5h-5.1l-1.2-4.8h-6.9l-1.3,4.8h-4.8L328.3,186.9z M331,191.1l-2.6,8.7h4.9L331,191.1z
		"/>
	<path class="st1" d="M355.2,186.9h5.1c0.3,0,0.5,0,0.8,0c0.3,0,0.4,0,0.4,0c2.7,0,4.7,0.5,6,1.4s1.9,2.4,1.9,4.4
		c0,1.3-0.3,2.4-1,3.3c-0.7,0.9-1.7,1.4-3,1.8c0.6,0.2,1.2,0.5,1.5,0.9c0.4,0.4,0.8,1.3,1.2,2.5l2.4,7.3h-5.1l-1.7-6.1
		c-0.3-1.1-0.6-1.8-1-2.2c-0.4-0.3-0.9-0.5-1.6-0.5h-0.9v8.8h-4.8V186.9z M360.1,190.4v5.5h1c1.2,0,2.1-0.2,2.6-0.6
		c0.5-0.4,0.8-1.1,0.8-2.1c0-1-0.2-1.8-0.7-2.2c-0.5-0.4-1.4-0.6-2.6-0.6H360.1z"/>
	<path class="st1" d="M385.5,186.9h12.2v3.6h-7.3v5.1h6.9v3.6h-6.9v5.5h7.7v3.6h-12.6V186.9z"/>
</g>
</svg>
